<mxfile host="app.diagrams.net" modified="2023-08-02T19:32:13.567Z" agent="Mozilla/5.0 (Windows NT 10.0; Win64; x64) AppleWebKit/537.36 (KHTML, like Gecko) Chrome/115.0.0.0 Safari/537.36" etag="uDhmhwJM323leZFVWLLi" version="21.6.6" type="google">
  <diagram id="C5RBs43oDa-KdzZeNtuy" name="Page-1">
    <mxGraphModel grid="0" page="1" gridSize="10" guides="1" tooltips="1" connect="1" arrows="1" fold="1" pageScale="1" pageWidth="827" pageHeight="1169" background="none" math="0" shadow="0">
      <root>
        <mxCell id="WIyWlLk6GJQsqaUBKTNV-0" />
        <mxCell id="WIyWlLk6GJQsqaUBKTNV-1" parent="WIyWlLk6GJQsqaUBKTNV-0" />
        <mxCell id="WIyWlLk6GJQsqaUBKTNV-2" value="" style="rounded=0;html=1;jettySize=auto;orthogonalLoop=1;fontSize=11;endArrow=none;endFill=0;endSize=8;strokeWidth=1;shadow=0;labelBackgroundColor=none;edgeStyle=orthogonalEdgeStyle;fillColor=#e1d5e7;strokeColor=#9673a6;" edge="1" parent="WIyWlLk6GJQsqaUBKTNV-1" source="WIyWlLk6GJQsqaUBKTNV-3" target="WIyWlLk6GJQsqaUBKTNV-6">
          <mxGeometry relative="1" as="geometry" />
        </mxCell>
        <mxCell id="WIyWlLk6GJQsqaUBKTNV-3" value="Filme" style="rounded=0;whiteSpace=wrap;html=1;fontSize=12;glass=0;strokeWidth=1;shadow=0;fillColor=#e1d5e7;strokeColor=#9673a6;" vertex="1" parent="WIyWlLk6GJQsqaUBKTNV-1">
          <mxGeometry x="93" y="305" width="120" height="40" as="geometry" />
        </mxCell>
        <mxCell id="WIyWlLk6GJQsqaUBKTNV-6" value="Possui" style="rhombus;whiteSpace=wrap;html=1;shadow=0;fontFamily=Helvetica;fontSize=12;align=center;strokeWidth=1;spacing=6;spacingTop=-4;fillColor=#e1d5e7;strokeColor=#9673a6;" vertex="1" parent="WIyWlLk6GJQsqaUBKTNV-1">
          <mxGeometry x="103" y="395" width="100" height="80" as="geometry" />
        </mxCell>
        <mxCell id="WIyWlLk6GJQsqaUBKTNV-8" value="" style="rounded=0;html=1;jettySize=auto;orthogonalLoop=1;fontSize=11;endArrow=none;endFill=0;endSize=8;strokeWidth=1;shadow=0;labelBackgroundColor=none;edgeStyle=orthogonalEdgeStyle;startArrow=none;startFill=0;fillColor=#e1d5e7;strokeColor=#9673a6;" edge="1" parent="WIyWlLk6GJQsqaUBKTNV-1" target="WIyWlLk6GJQsqaUBKTNV-11">
          <mxGeometry x="0.3333" y="20" relative="1" as="geometry">
            <mxPoint as="offset" />
            <mxPoint x="153" y="475" as="sourcePoint" />
          </mxGeometry>
        </mxCell>
        <mxCell id="WIyWlLk6GJQsqaUBKTNV-11" value="Genero" style="rounded=0;whiteSpace=wrap;html=1;fontSize=12;glass=0;strokeWidth=1;shadow=0;fillColor=#e1d5e7;strokeColor=#9673a6;" vertex="1" parent="WIyWlLk6GJQsqaUBKTNV-1">
          <mxGeometry x="93" y="535" width="120" height="40" as="geometry" />
        </mxCell>
        <mxCell id="sGclK2KRKUj143xFGbAp-6" value="N" style="text;html=1;strokeColor=none;fillColor=none;align=center;verticalAlign=middle;whiteSpace=wrap;rounded=0;" vertex="1" parent="WIyWlLk6GJQsqaUBKTNV-1">
          <mxGeometry x="143" y="355" width="60" height="30" as="geometry" />
        </mxCell>
        <mxCell id="sGclK2KRKUj143xFGbAp-7" value="1" style="text;html=1;strokeColor=none;fillColor=none;align=center;verticalAlign=middle;whiteSpace=wrap;rounded=0;" vertex="1" parent="WIyWlLk6GJQsqaUBKTNV-1">
          <mxGeometry x="143" y="495" width="60" height="30" as="geometry" />
        </mxCell>
        <mxCell id="tkG_dk_37VdLsQCFt-n_-26" value="Filme" style="shape=table;startSize=30;container=1;collapsible=1;childLayout=tableLayout;fixedRows=1;rowLines=0;fontStyle=1;align=center;resizeLast=1;html=1;whiteSpace=wrap;" vertex="1" parent="WIyWlLk6GJQsqaUBKTNV-1">
          <mxGeometry x="606" y="286" width="180" height="120" as="geometry" />
        </mxCell>
        <mxCell id="tkG_dk_37VdLsQCFt-n_-27" value="" style="shape=tableRow;horizontal=0;startSize=0;swimlaneHead=0;swimlaneBody=0;fillColor=none;collapsible=0;dropTarget=0;points=[[0,0.5],[1,0.5]];portConstraint=eastwest;top=0;left=0;right=0;bottom=0;html=1;" vertex="1" parent="tkG_dk_37VdLsQCFt-n_-26">
          <mxGeometry y="30" width="180" height="30" as="geometry" />
        </mxCell>
        <mxCell id="tkG_dk_37VdLsQCFt-n_-28" value="PK" style="shape=partialRectangle;connectable=0;fillColor=none;top=0;left=0;bottom=0;right=0;fontStyle=1;overflow=hidden;html=1;whiteSpace=wrap;" vertex="1" parent="tkG_dk_37VdLsQCFt-n_-27">
          <mxGeometry width="60" height="30" as="geometry">
            <mxRectangle width="60" height="30" as="alternateBounds" />
          </mxGeometry>
        </mxCell>
        <mxCell id="tkG_dk_37VdLsQCFt-n_-29" value="IdFilme" style="shape=partialRectangle;connectable=0;fillColor=none;top=0;left=0;bottom=0;right=0;align=left;spacingLeft=6;fontStyle=5;overflow=hidden;html=1;whiteSpace=wrap;" vertex="1" parent="tkG_dk_37VdLsQCFt-n_-27">
          <mxGeometry x="60" width="120" height="30" as="geometry">
            <mxRectangle width="120" height="30" as="alternateBounds" />
          </mxGeometry>
        </mxCell>
        <mxCell id="tkG_dk_37VdLsQCFt-n_-30" value="" style="shape=tableRow;horizontal=0;startSize=0;swimlaneHead=0;swimlaneBody=0;fillColor=none;collapsible=0;dropTarget=0;points=[[0,0.5],[1,0.5]];portConstraint=eastwest;top=0;left=0;right=0;bottom=1;html=1;" vertex="1" parent="tkG_dk_37VdLsQCFt-n_-26">
          <mxGeometry y="60" width="180" height="30" as="geometry" />
        </mxCell>
        <mxCell id="tkG_dk_37VdLsQCFt-n_-31" value="FK" style="shape=partialRectangle;connectable=0;fillColor=none;top=0;left=0;bottom=0;right=0;fontStyle=1;overflow=hidden;html=1;whiteSpace=wrap;" vertex="1" parent="tkG_dk_37VdLsQCFt-n_-30">
          <mxGeometry width="60" height="30" as="geometry">
            <mxRectangle width="60" height="30" as="alternateBounds" />
          </mxGeometry>
        </mxCell>
        <mxCell id="tkG_dk_37VdLsQCFt-n_-32" value="IdGenero" style="shape=partialRectangle;connectable=0;fillColor=none;top=0;left=0;bottom=0;right=0;align=left;spacingLeft=6;fontStyle=5;overflow=hidden;html=1;whiteSpace=wrap;" vertex="1" parent="tkG_dk_37VdLsQCFt-n_-30">
          <mxGeometry x="60" width="120" height="30" as="geometry">
            <mxRectangle width="120" height="30" as="alternateBounds" />
          </mxGeometry>
        </mxCell>
        <mxCell id="tkG_dk_37VdLsQCFt-n_-33" value="" style="shape=tableRow;horizontal=0;startSize=0;swimlaneHead=0;swimlaneBody=0;fillColor=none;collapsible=0;dropTarget=0;points=[[0,0.5],[1,0.5]];portConstraint=eastwest;top=0;left=0;right=0;bottom=0;html=1;" vertex="1" parent="tkG_dk_37VdLsQCFt-n_-26">
          <mxGeometry y="90" width="180" height="30" as="geometry" />
        </mxCell>
        <mxCell id="tkG_dk_37VdLsQCFt-n_-34" value="" style="shape=partialRectangle;connectable=0;fillColor=none;top=0;left=0;bottom=0;right=0;editable=1;overflow=hidden;html=1;whiteSpace=wrap;" vertex="1" parent="tkG_dk_37VdLsQCFt-n_-33">
          <mxGeometry width="60" height="30" as="geometry">
            <mxRectangle width="60" height="30" as="alternateBounds" />
          </mxGeometry>
        </mxCell>
        <mxCell id="tkG_dk_37VdLsQCFt-n_-35" value="Titulo" style="shape=partialRectangle;connectable=0;fillColor=none;top=0;left=0;bottom=0;right=0;align=left;spacingLeft=6;overflow=hidden;html=1;whiteSpace=wrap;" vertex="1" parent="tkG_dk_37VdLsQCFt-n_-33">
          <mxGeometry x="60" width="120" height="30" as="geometry">
            <mxRectangle width="120" height="30" as="alternateBounds" />
          </mxGeometry>
        </mxCell>
        <mxCell id="tkG_dk_37VdLsQCFt-n_-39" value="Genero" style="shape=table;startSize=30;container=1;collapsible=1;childLayout=tableLayout;fixedRows=1;rowLines=0;fontStyle=1;align=center;resizeLast=1;html=1;" vertex="1" parent="WIyWlLk6GJQsqaUBKTNV-1">
          <mxGeometry x="351" y="488" width="180" height="90" as="geometry" />
        </mxCell>
        <mxCell id="tkG_dk_37VdLsQCFt-n_-40" value="" style="shape=tableRow;horizontal=0;startSize=0;swimlaneHead=0;swimlaneBody=0;fillColor=none;collapsible=0;dropTarget=0;points=[[0,0.5],[1,0.5]];portConstraint=eastwest;top=0;left=0;right=0;bottom=1;" vertex="1" parent="tkG_dk_37VdLsQCFt-n_-39">
          <mxGeometry y="30" width="180" height="30" as="geometry" />
        </mxCell>
        <mxCell id="tkG_dk_37VdLsQCFt-n_-41" value="PK" style="shape=partialRectangle;connectable=0;fillColor=none;top=0;left=0;bottom=0;right=0;fontStyle=1;overflow=hidden;whiteSpace=wrap;html=1;" vertex="1" parent="tkG_dk_37VdLsQCFt-n_-40">
          <mxGeometry width="30" height="30" as="geometry">
            <mxRectangle width="30" height="30" as="alternateBounds" />
          </mxGeometry>
        </mxCell>
        <mxCell id="tkG_dk_37VdLsQCFt-n_-42" value="IdGenero" style="shape=partialRectangle;connectable=0;fillColor=none;top=0;left=0;bottom=0;right=0;align=left;spacingLeft=6;fontStyle=5;overflow=hidden;whiteSpace=wrap;html=1;" vertex="1" parent="tkG_dk_37VdLsQCFt-n_-40">
          <mxGeometry x="30" width="150" height="30" as="geometry">
            <mxRectangle width="150" height="30" as="alternateBounds" />
          </mxGeometry>
        </mxCell>
        <mxCell id="tkG_dk_37VdLsQCFt-n_-43" value="" style="shape=tableRow;horizontal=0;startSize=0;swimlaneHead=0;swimlaneBody=0;fillColor=none;collapsible=0;dropTarget=0;points=[[0,0.5],[1,0.5]];portConstraint=eastwest;top=0;left=0;right=0;bottom=0;" vertex="1" parent="tkG_dk_37VdLsQCFt-n_-39">
          <mxGeometry y="60" width="180" height="30" as="geometry" />
        </mxCell>
        <mxCell id="tkG_dk_37VdLsQCFt-n_-44" value="" style="shape=partialRectangle;connectable=0;fillColor=none;top=0;left=0;bottom=0;right=0;editable=1;overflow=hidden;whiteSpace=wrap;html=1;" vertex="1" parent="tkG_dk_37VdLsQCFt-n_-43">
          <mxGeometry width="30" height="30" as="geometry">
            <mxRectangle width="30" height="30" as="alternateBounds" />
          </mxGeometry>
        </mxCell>
        <mxCell id="tkG_dk_37VdLsQCFt-n_-45" value="NomeGenero" style="shape=partialRectangle;connectable=0;fillColor=none;top=0;left=0;bottom=0;right=0;align=left;spacingLeft=6;overflow=hidden;whiteSpace=wrap;html=1;" vertex="1" parent="tkG_dk_37VdLsQCFt-n_-43">
          <mxGeometry x="30" width="150" height="30" as="geometry">
            <mxRectangle width="150" height="30" as="alternateBounds" />
          </mxGeometry>
        </mxCell>
        <mxCell id="tkG_dk_37VdLsQCFt-n_-52" value="" style="edgeStyle=entityRelationEdgeStyle;fontSize=12;html=1;endArrow=ERoneToMany;rounded=0;entryX=0;entryY=0.5;entryDx=0;entryDy=0;exitX=1;exitY=0.5;exitDx=0;exitDy=0;" edge="1" parent="WIyWlLk6GJQsqaUBKTNV-1" source="tkG_dk_37VdLsQCFt-n_-39">
          <mxGeometry width="100" height="100" relative="1" as="geometry">
            <mxPoint x="548" y="543" as="sourcePoint" />
            <mxPoint x="606" y="358" as="targetPoint" />
            <Array as="points">
              <mxPoint x="526" y="370" />
              <mxPoint x="524" y="424" />
              <mxPoint x="521" y="431" />
            </Array>
          </mxGeometry>
        </mxCell>
        <mxCell id="tkG_dk_37VdLsQCFt-n_-57" value="&lt;font style=&quot;font-size: 18px;&quot;&gt;&lt;b&gt;Conceitual&lt;/b&gt;&lt;/font&gt;" style="text;html=1;strokeColor=none;fillColor=none;align=center;verticalAlign=middle;whiteSpace=wrap;rounded=0;" vertex="1" parent="WIyWlLk6GJQsqaUBKTNV-1">
          <mxGeometry x="112" y="256" width="60" height="30" as="geometry" />
        </mxCell>
        <mxCell id="tkG_dk_37VdLsQCFt-n_-58" value="&lt;b&gt;&lt;font style=&quot;font-size: 18px;&quot;&gt;Lógico&lt;/font&gt;&lt;/b&gt;" style="text;html=1;strokeColor=none;fillColor=none;align=center;verticalAlign=middle;whiteSpace=wrap;rounded=0;" vertex="1" parent="WIyWlLk6GJQsqaUBKTNV-1">
          <mxGeometry x="437" y="263" width="60" height="30" as="geometry" />
        </mxCell>
        <mxCell id="tkG_dk_37VdLsQCFt-n_-62" value="&lt;b&gt;&lt;font style=&quot;font-size: 18px;&quot;&gt;Físico&lt;/font&gt;&lt;/b&gt;" style="text;html=1;strokeColor=none;fillColor=none;align=center;verticalAlign=middle;whiteSpace=wrap;rounded=0;" vertex="1" parent="WIyWlLk6GJQsqaUBKTNV-1">
          <mxGeometry x="354" y="653" width="60" height="30" as="geometry" />
        </mxCell>
        <mxCell id="tkG_dk_37VdLsQCFt-n_-64" value="Genero" style="shape=table;startSize=30;container=1;collapsible=0;childLayout=tableLayout;strokeColor=default;fontSize=16;" vertex="1" parent="WIyWlLk6GJQsqaUBKTNV-1">
          <mxGeometry x="93" y="738" width="274" height="190" as="geometry" />
        </mxCell>
        <mxCell id="tkG_dk_37VdLsQCFt-n_-65" value="" style="shape=tableRow;horizontal=0;startSize=0;swimlaneHead=0;swimlaneBody=0;strokeColor=inherit;top=0;left=0;bottom=0;right=0;collapsible=0;dropTarget=0;fillColor=none;points=[[0,0.5],[1,0.5]];portConstraint=eastwest;fontSize=16;" vertex="1" parent="tkG_dk_37VdLsQCFt-n_-64">
          <mxGeometry y="30" width="274" height="40" as="geometry" />
        </mxCell>
        <mxCell id="tkG_dk_37VdLsQCFt-n_-66" value="IdGenero" style="shape=partialRectangle;html=1;whiteSpace=wrap;connectable=0;strokeColor=inherit;overflow=hidden;fillColor=none;top=0;left=0;bottom=0;right=0;pointerEvents=1;fontSize=16;" vertex="1" parent="tkG_dk_37VdLsQCFt-n_-65">
          <mxGeometry width="95" height="40" as="geometry">
            <mxRectangle width="95" height="40" as="alternateBounds" />
          </mxGeometry>
        </mxCell>
        <mxCell id="tkG_dk_37VdLsQCFt-n_-67" value="NomeGenero" style="shape=partialRectangle;html=1;whiteSpace=wrap;connectable=0;strokeColor=inherit;overflow=hidden;fillColor=none;top=0;left=0;bottom=0;right=0;pointerEvents=1;fontSize=16;rowspan=1;colspan=2;" vertex="1" parent="tkG_dk_37VdLsQCFt-n_-65">
          <mxGeometry x="95" width="179" height="40" as="geometry">
            <mxRectangle width="92" height="40" as="alternateBounds" />
          </mxGeometry>
        </mxCell>
        <mxCell id="tkG_dk_37VdLsQCFt-n_-68" value="" style="shape=partialRectangle;html=1;whiteSpace=wrap;connectable=0;strokeColor=inherit;overflow=hidden;fillColor=none;top=0;left=0;bottom=0;right=0;pointerEvents=1;fontSize=16;" visible="0" vertex="1" parent="tkG_dk_37VdLsQCFt-n_-65">
          <mxGeometry x="187" width="87" height="40" as="geometry">
            <mxRectangle width="87" height="40" as="alternateBounds" />
          </mxGeometry>
        </mxCell>
        <mxCell id="tkG_dk_37VdLsQCFt-n_-69" value="" style="shape=tableRow;horizontal=0;startSize=0;swimlaneHead=0;swimlaneBody=0;strokeColor=inherit;top=0;left=0;bottom=0;right=0;collapsible=0;dropTarget=0;fillColor=none;points=[[0,0.5],[1,0.5]];portConstraint=eastwest;fontSize=16;" vertex="1" parent="tkG_dk_37VdLsQCFt-n_-64">
          <mxGeometry y="70" width="274" height="40" as="geometry" />
        </mxCell>
        <mxCell id="tkG_dk_37VdLsQCFt-n_-70" value="1" style="shape=partialRectangle;html=1;whiteSpace=wrap;connectable=0;strokeColor=inherit;overflow=hidden;fillColor=none;top=0;left=0;bottom=0;right=0;pointerEvents=1;fontSize=16;" vertex="1" parent="tkG_dk_37VdLsQCFt-n_-69">
          <mxGeometry width="95" height="40" as="geometry">
            <mxRectangle width="95" height="40" as="alternateBounds" />
          </mxGeometry>
        </mxCell>
        <mxCell id="tkG_dk_37VdLsQCFt-n_-71" value="Terror" style="shape=partialRectangle;html=1;whiteSpace=wrap;connectable=0;strokeColor=inherit;overflow=hidden;fillColor=none;top=0;left=0;bottom=0;right=0;pointerEvents=1;fontSize=16;rowspan=1;colspan=2;" vertex="1" parent="tkG_dk_37VdLsQCFt-n_-69">
          <mxGeometry x="95" width="179" height="40" as="geometry">
            <mxRectangle width="92" height="40" as="alternateBounds" />
          </mxGeometry>
        </mxCell>
        <mxCell id="tkG_dk_37VdLsQCFt-n_-72" value="" style="shape=partialRectangle;html=1;whiteSpace=wrap;connectable=0;strokeColor=inherit;overflow=hidden;fillColor=none;top=0;left=0;bottom=0;right=0;pointerEvents=1;fontSize=16;" visible="0" vertex="1" parent="tkG_dk_37VdLsQCFt-n_-69">
          <mxGeometry x="187" width="87" height="40" as="geometry">
            <mxRectangle width="87" height="40" as="alternateBounds" />
          </mxGeometry>
        </mxCell>
        <mxCell id="tkG_dk_37VdLsQCFt-n_-73" value="" style="shape=tableRow;horizontal=0;startSize=0;swimlaneHead=0;swimlaneBody=0;strokeColor=inherit;top=0;left=0;bottom=0;right=0;collapsible=0;dropTarget=0;fillColor=none;points=[[0,0.5],[1,0.5]];portConstraint=eastwest;fontSize=16;" vertex="1" parent="tkG_dk_37VdLsQCFt-n_-64">
          <mxGeometry y="110" width="274" height="40" as="geometry" />
        </mxCell>
        <mxCell id="tkG_dk_37VdLsQCFt-n_-74" value="2" style="shape=partialRectangle;html=1;whiteSpace=wrap;connectable=0;strokeColor=inherit;overflow=hidden;fillColor=none;top=0;left=0;bottom=0;right=0;pointerEvents=1;fontSize=16;" vertex="1" parent="tkG_dk_37VdLsQCFt-n_-73">
          <mxGeometry width="95" height="40" as="geometry">
            <mxRectangle width="95" height="40" as="alternateBounds" />
          </mxGeometry>
        </mxCell>
        <mxCell id="tkG_dk_37VdLsQCFt-n_-75" value="Ação" style="shape=partialRectangle;html=1;whiteSpace=wrap;connectable=0;strokeColor=inherit;overflow=hidden;fillColor=none;top=0;left=0;bottom=0;right=0;pointerEvents=1;fontSize=16;rowspan=1;colspan=2;" vertex="1" parent="tkG_dk_37VdLsQCFt-n_-73">
          <mxGeometry x="95" width="179" height="40" as="geometry">
            <mxRectangle width="92" height="40" as="alternateBounds" />
          </mxGeometry>
        </mxCell>
        <mxCell id="tkG_dk_37VdLsQCFt-n_-76" value="" style="shape=partialRectangle;html=1;whiteSpace=wrap;connectable=0;strokeColor=inherit;overflow=hidden;fillColor=none;top=0;left=0;bottom=0;right=0;pointerEvents=1;fontSize=16;" visible="0" vertex="1" parent="tkG_dk_37VdLsQCFt-n_-73">
          <mxGeometry x="187" width="87" height="40" as="geometry">
            <mxRectangle width="87" height="40" as="alternateBounds" />
          </mxGeometry>
        </mxCell>
        <mxCell id="tkG_dk_37VdLsQCFt-n_-85" style="shape=tableRow;horizontal=0;startSize=0;swimlaneHead=0;swimlaneBody=0;strokeColor=inherit;top=0;left=0;bottom=0;right=0;collapsible=0;dropTarget=0;fillColor=none;points=[[0,0.5],[1,0.5]];portConstraint=eastwest;fontSize=16;" vertex="1" parent="tkG_dk_37VdLsQCFt-n_-64">
          <mxGeometry y="150" width="274" height="40" as="geometry" />
        </mxCell>
        <mxCell id="tkG_dk_37VdLsQCFt-n_-86" value="3" style="shape=partialRectangle;html=1;whiteSpace=wrap;connectable=0;strokeColor=inherit;overflow=hidden;fillColor=none;top=0;left=0;bottom=0;right=0;pointerEvents=1;fontSize=16;" vertex="1" parent="tkG_dk_37VdLsQCFt-n_-85">
          <mxGeometry width="95" height="40" as="geometry">
            <mxRectangle width="95" height="40" as="alternateBounds" />
          </mxGeometry>
        </mxCell>
        <mxCell id="tkG_dk_37VdLsQCFt-n_-87" value="Suspense" style="shape=partialRectangle;html=1;whiteSpace=wrap;connectable=0;strokeColor=inherit;overflow=hidden;fillColor=none;top=0;left=0;bottom=0;right=0;pointerEvents=1;fontSize=16;rowspan=1;colspan=2;" vertex="1" parent="tkG_dk_37VdLsQCFt-n_-85">
          <mxGeometry x="95" width="179" height="40" as="geometry">
            <mxRectangle width="92" height="40" as="alternateBounds" />
          </mxGeometry>
        </mxCell>
        <mxCell id="tkG_dk_37VdLsQCFt-n_-88" style="shape=partialRectangle;html=1;whiteSpace=wrap;connectable=0;strokeColor=inherit;overflow=hidden;fillColor=none;top=0;left=0;bottom=0;right=0;pointerEvents=1;fontSize=16;" visible="0" vertex="1" parent="tkG_dk_37VdLsQCFt-n_-85">
          <mxGeometry x="187" width="87" height="40" as="geometry">
            <mxRectangle width="87" height="40" as="alternateBounds" />
          </mxGeometry>
        </mxCell>
        <mxCell id="tkG_dk_37VdLsQCFt-n_-89" value="Filme" style="shape=table;startSize=30;container=1;collapsible=0;childLayout=tableLayout;strokeColor=default;fontSize=16;" vertex="1" parent="WIyWlLk6GJQsqaUBKTNV-1">
          <mxGeometry x="423" y="740" width="369" height="190" as="geometry" />
        </mxCell>
        <mxCell id="tkG_dk_37VdLsQCFt-n_-90" value="" style="shape=tableRow;horizontal=0;startSize=0;swimlaneHead=0;swimlaneBody=0;strokeColor=inherit;top=0;left=0;bottom=0;right=0;collapsible=0;dropTarget=0;fillColor=none;points=[[0,0.5],[1,0.5]];portConstraint=eastwest;fontSize=16;" vertex="1" parent="tkG_dk_37VdLsQCFt-n_-89">
          <mxGeometry y="30" width="369" height="40" as="geometry" />
        </mxCell>
        <mxCell id="tkG_dk_37VdLsQCFt-n_-122" value="IdFilme" style="shape=partialRectangle;html=1;whiteSpace=wrap;connectable=0;strokeColor=inherit;overflow=hidden;fillColor=none;top=0;left=0;bottom=0;right=0;pointerEvents=1;fontSize=16;" vertex="1" parent="tkG_dk_37VdLsQCFt-n_-90">
          <mxGeometry width="95" height="40" as="geometry">
            <mxRectangle width="95" height="40" as="alternateBounds" />
          </mxGeometry>
        </mxCell>
        <mxCell id="tkG_dk_37VdLsQCFt-n_-91" value="IdGenero" style="shape=partialRectangle;html=1;whiteSpace=wrap;connectable=0;strokeColor=inherit;overflow=hidden;fillColor=none;top=0;left=0;bottom=0;right=0;pointerEvents=1;fontSize=16;" vertex="1" parent="tkG_dk_37VdLsQCFt-n_-90">
          <mxGeometry x="95" width="95" height="40" as="geometry">
            <mxRectangle width="95" height="40" as="alternateBounds" />
          </mxGeometry>
        </mxCell>
        <mxCell id="tkG_dk_37VdLsQCFt-n_-92" value="NomeGenero" style="shape=partialRectangle;html=1;whiteSpace=wrap;connectable=0;strokeColor=inherit;overflow=hidden;fillColor=none;top=0;left=0;bottom=0;right=0;pointerEvents=1;fontSize=16;rowspan=1;colspan=2;" vertex="1" parent="tkG_dk_37VdLsQCFt-n_-90">
          <mxGeometry x="190" width="179" height="40" as="geometry">
            <mxRectangle width="92" height="40" as="alternateBounds" />
          </mxGeometry>
        </mxCell>
        <mxCell id="tkG_dk_37VdLsQCFt-n_-93" value="" style="shape=partialRectangle;html=1;whiteSpace=wrap;connectable=0;strokeColor=inherit;overflow=hidden;fillColor=none;top=0;left=0;bottom=0;right=0;pointerEvents=1;fontSize=16;" visible="0" vertex="1" parent="tkG_dk_37VdLsQCFt-n_-90">
          <mxGeometry x="282" width="87" height="40" as="geometry">
            <mxRectangle width="87" height="40" as="alternateBounds" />
          </mxGeometry>
        </mxCell>
        <mxCell id="tkG_dk_37VdLsQCFt-n_-94" value="" style="shape=tableRow;horizontal=0;startSize=0;swimlaneHead=0;swimlaneBody=0;strokeColor=inherit;top=0;left=0;bottom=0;right=0;collapsible=0;dropTarget=0;fillColor=none;points=[[0,0.5],[1,0.5]];portConstraint=eastwest;fontSize=16;" vertex="1" parent="tkG_dk_37VdLsQCFt-n_-89">
          <mxGeometry y="70" width="369" height="40" as="geometry" />
        </mxCell>
        <mxCell id="tkG_dk_37VdLsQCFt-n_-123" value="1" style="shape=partialRectangle;html=1;whiteSpace=wrap;connectable=0;strokeColor=inherit;overflow=hidden;fillColor=none;top=0;left=0;bottom=0;right=0;pointerEvents=1;fontSize=16;" vertex="1" parent="tkG_dk_37VdLsQCFt-n_-94">
          <mxGeometry width="95" height="40" as="geometry">
            <mxRectangle width="95" height="40" as="alternateBounds" />
          </mxGeometry>
        </mxCell>
        <mxCell id="tkG_dk_37VdLsQCFt-n_-95" value="3" style="shape=partialRectangle;html=1;whiteSpace=wrap;connectable=0;strokeColor=inherit;overflow=hidden;fillColor=none;top=0;left=0;bottom=0;right=0;pointerEvents=1;fontSize=16;" vertex="1" parent="tkG_dk_37VdLsQCFt-n_-94">
          <mxGeometry x="95" width="95" height="40" as="geometry">
            <mxRectangle width="95" height="40" as="alternateBounds" />
          </mxGeometry>
        </mxCell>
        <mxCell id="tkG_dk_37VdLsQCFt-n_-96" value="Bird Box" style="shape=partialRectangle;html=1;whiteSpace=wrap;connectable=0;strokeColor=inherit;overflow=hidden;fillColor=none;top=0;left=0;bottom=0;right=0;pointerEvents=1;fontSize=16;rowspan=1;colspan=2;" vertex="1" parent="tkG_dk_37VdLsQCFt-n_-94">
          <mxGeometry x="190" width="179" height="40" as="geometry">
            <mxRectangle width="92" height="40" as="alternateBounds" />
          </mxGeometry>
        </mxCell>
        <mxCell id="tkG_dk_37VdLsQCFt-n_-97" value="" style="shape=partialRectangle;html=1;whiteSpace=wrap;connectable=0;strokeColor=inherit;overflow=hidden;fillColor=none;top=0;left=0;bottom=0;right=0;pointerEvents=1;fontSize=16;" visible="0" vertex="1" parent="tkG_dk_37VdLsQCFt-n_-94">
          <mxGeometry x="282" width="87" height="40" as="geometry">
            <mxRectangle width="87" height="40" as="alternateBounds" />
          </mxGeometry>
        </mxCell>
        <mxCell id="tkG_dk_37VdLsQCFt-n_-98" value="" style="shape=tableRow;horizontal=0;startSize=0;swimlaneHead=0;swimlaneBody=0;strokeColor=inherit;top=0;left=0;bottom=0;right=0;collapsible=0;dropTarget=0;fillColor=none;points=[[0,0.5],[1,0.5]];portConstraint=eastwest;fontSize=16;" vertex="1" parent="tkG_dk_37VdLsQCFt-n_-89">
          <mxGeometry y="110" width="369" height="40" as="geometry" />
        </mxCell>
        <mxCell id="tkG_dk_37VdLsQCFt-n_-124" value="2" style="shape=partialRectangle;html=1;whiteSpace=wrap;connectable=0;strokeColor=inherit;overflow=hidden;fillColor=none;top=0;left=0;bottom=0;right=0;pointerEvents=1;fontSize=16;" vertex="1" parent="tkG_dk_37VdLsQCFt-n_-98">
          <mxGeometry width="95" height="40" as="geometry">
            <mxRectangle width="95" height="40" as="alternateBounds" />
          </mxGeometry>
        </mxCell>
        <mxCell id="tkG_dk_37VdLsQCFt-n_-99" value="1" style="shape=partialRectangle;html=1;whiteSpace=wrap;connectable=0;strokeColor=inherit;overflow=hidden;fillColor=none;top=0;left=0;bottom=0;right=0;pointerEvents=1;fontSize=16;" vertex="1" parent="tkG_dk_37VdLsQCFt-n_-98">
          <mxGeometry x="95" width="95" height="40" as="geometry">
            <mxRectangle width="95" height="40" as="alternateBounds" />
          </mxGeometry>
        </mxCell>
        <mxCell id="tkG_dk_37VdLsQCFt-n_-100" value="Invocação do Mal" style="shape=partialRectangle;html=1;whiteSpace=wrap;connectable=0;strokeColor=inherit;overflow=hidden;fillColor=none;top=0;left=0;bottom=0;right=0;pointerEvents=1;fontSize=16;rowspan=1;colspan=2;" vertex="1" parent="tkG_dk_37VdLsQCFt-n_-98">
          <mxGeometry x="190" width="179" height="40" as="geometry">
            <mxRectangle width="92" height="40" as="alternateBounds" />
          </mxGeometry>
        </mxCell>
        <mxCell id="tkG_dk_37VdLsQCFt-n_-101" value="" style="shape=partialRectangle;html=1;whiteSpace=wrap;connectable=0;strokeColor=inherit;overflow=hidden;fillColor=none;top=0;left=0;bottom=0;right=0;pointerEvents=1;fontSize=16;" visible="0" vertex="1" parent="tkG_dk_37VdLsQCFt-n_-98">
          <mxGeometry x="282" width="87" height="40" as="geometry">
            <mxRectangle width="87" height="40" as="alternateBounds" />
          </mxGeometry>
        </mxCell>
        <mxCell id="tkG_dk_37VdLsQCFt-n_-102" style="shape=tableRow;horizontal=0;startSize=0;swimlaneHead=0;swimlaneBody=0;strokeColor=inherit;top=0;left=0;bottom=0;right=0;collapsible=0;dropTarget=0;fillColor=none;points=[[0,0.5],[1,0.5]];portConstraint=eastwest;fontSize=16;" vertex="1" parent="tkG_dk_37VdLsQCFt-n_-89">
          <mxGeometry y="150" width="369" height="40" as="geometry" />
        </mxCell>
        <mxCell id="tkG_dk_37VdLsQCFt-n_-125" value="3" style="shape=partialRectangle;html=1;whiteSpace=wrap;connectable=0;strokeColor=inherit;overflow=hidden;fillColor=none;top=0;left=0;bottom=0;right=0;pointerEvents=1;fontSize=16;" vertex="1" parent="tkG_dk_37VdLsQCFt-n_-102">
          <mxGeometry width="95" height="40" as="geometry">
            <mxRectangle width="95" height="40" as="alternateBounds" />
          </mxGeometry>
        </mxCell>
        <mxCell id="tkG_dk_37VdLsQCFt-n_-103" value="2" style="shape=partialRectangle;html=1;whiteSpace=wrap;connectable=0;strokeColor=inherit;overflow=hidden;fillColor=none;top=0;left=0;bottom=0;right=0;pointerEvents=1;fontSize=16;" vertex="1" parent="tkG_dk_37VdLsQCFt-n_-102">
          <mxGeometry x="95" width="95" height="40" as="geometry">
            <mxRectangle width="95" height="40" as="alternateBounds" />
          </mxGeometry>
        </mxCell>
        <mxCell id="tkG_dk_37VdLsQCFt-n_-104" value="John Wick" style="shape=partialRectangle;html=1;whiteSpace=wrap;connectable=0;strokeColor=inherit;overflow=hidden;fillColor=none;top=0;left=0;bottom=0;right=0;pointerEvents=1;fontSize=16;rowspan=1;colspan=2;" vertex="1" parent="tkG_dk_37VdLsQCFt-n_-102">
          <mxGeometry x="190" width="179" height="40" as="geometry">
            <mxRectangle width="92" height="40" as="alternateBounds" />
          </mxGeometry>
        </mxCell>
        <mxCell id="tkG_dk_37VdLsQCFt-n_-105" style="shape=partialRectangle;html=1;whiteSpace=wrap;connectable=0;strokeColor=inherit;overflow=hidden;fillColor=none;top=0;left=0;bottom=0;right=0;pointerEvents=1;fontSize=16;" visible="0" vertex="1" parent="tkG_dk_37VdLsQCFt-n_-102">
          <mxGeometry x="282" width="87" height="40" as="geometry">
            <mxRectangle width="87" height="40" as="alternateBounds" />
          </mxGeometry>
        </mxCell>
      </root>
    </mxGraphModel>
  </diagram>
</mxfile>
